<?xml version="1.0" encoding="utf-8"?>
<!-- Generator: Adobe Illustrator 19.2.0, SVG Export Plug-In . SVG Version: 6.00 Build 0)  -->
<svg version="1.1" id="katman_1" xmlns="http://www.w3.org/2000/svg" xmlns:xlink="http://www.w3.org/1999/xlink" x="0px" y="0px"
	 viewBox="0 0 887.3 668" style="enable-background:new 0 0 887.3 668;" xml:space="preserve">
<style type="text/css">
	.st0{opacity:5.000000e-002;clip-path:url(#SVGID_2_);fill:url(#SVGID_3_);}
	.st1{fill:#F44336;}
	.st2{opacity:0.43;}
	.st3{fill:#1D1D1B;}
	.st4{fill:#FFFFFF;}
	.st5{fill:#F5F5F5;}
</style>
<g>
	<g>
		<defs>
			<path id="SVGID_1_" d="M592.1,59.2H565H558c-3.1,0-5.6,2.5-5.6,5.6c0,6.9,0,17.8,0,17.8c0,6.5-5.3,11.9-11.9,11.9h-10.4
				c-6.5,0-11.9-5.3-11.9-11.9c0,0,0-10.7,0-17.6c0-3.2-2.6-5.8-5.8-5.8l-26.8,0c-3.1,0-5.6,2.5-5.6,5.6c0,6.9,0,17.8,0,17.8
				c0,6.5-5.3,11.9-11.9,11.9H458c-6.5,0-11.9-5.3-11.9-11.9c0,0,0-10.8,0-17.7c0-3.1-2.5-5.7-5.7-5.7l-3,0h-24
				c-18.4,0-34,15.5-36.9,36.6l-16.3,119.9c-3.6,26.3,13.9,50.2,36.9,50.2h178.6c7.7,0,5.1-4,11.1-8.7c4.9-3.9,7.5-9.5,9.1-19.4
				c0.8-4.6,16-3.5,16.7-8.5L629,109.4C632.6,83,615.1,59.2,592.1,59.2z"/>
		</defs>
		<clipPath id="SVGID_2_">
			<use xlink:href="#SVGID_1_"  style="overflow:visible;"/>
		</clipPath>
		<linearGradient id="SVGID_3_" gradientUnits="userSpaceOnUse" x1="480.9406" y1="92.4107" x2="491.8089" y2="296.9324">
			<stop  offset="0" style="stop-color:#FFFFFF;stop-opacity:0.9378"/>
			<stop  offset="1" style="stop-color:#3C3C3B;stop-opacity:0"/>
		</linearGradient>
		<path class="st0" d="M569.3,93.4l-135.1,94.9l-59.3-79.2l-14.5,106.6c-3.6,26.3,13.9,50.2,36.9,50.2h178.6c7.7,0,5.1-4,11.1-8.7
			c4.9-3.9,7.5-9.5,9.1-19.4c0.8-4.6,16-3.5,16.7-8.5l2.6-19.1L569.3,93.4z"/>
	</g>
	<path class="st1" d="M592.1,59.2H565l-6.9,0c-3.1,0-5.6,2.5-5.6,5.6c0,6.9,0,17.8,0,17.8c0,6.5-5.3,11.9-11.9,11.9h-10.4
		c-6.5,0-11.9-5.3-11.9-11.9c0,0,0-10.7,0-17.6c0-3.2-2.6-5.8-5.8-5.8l-26.8,0c-3.1,0-5.6,2.5-5.6,5.6c0,6.9,0,17.8,0,17.8
		c0,6.5-5.3,11.9-11.9,11.9H458c-6.5,0-11.9-5.3-11.9-11.9c0,0,0-10.8,0-17.7c0-3.1-2.5-5.7-5.7-5.7l-3,0h-24
		c-18.4,0-34,15.5-36.9,36.6l-16.3,119.9c-3.6,26.3,13.9,50.2,36.9,50.2h91.8h86.7l0,0c17.5,0,32.4-12.9,34.9-30.2L629,109.4
		C632.6,83,615.1,59.2,592.1,59.2z"/>
	<g class="st2">
		<path class="st3" d="M401.1,209.9v-77.8h27.8c5.7,0,11,1,16,3c4.9,1.9,9.3,4.7,13.1,8.2c3.7,3.4,6.6,7.6,8.8,12.4
			c2.1,4.8,3.2,9.9,3.2,15.3c0,5.4-1.1,10.5-3.2,15.2c-2.2,4.9-5.1,9-8.8,12.4c-3.8,3.5-8.2,6.2-13.2,8.2c-5,2-10.3,3-16,3H401.1z
			 M421,148.7v44.8h6.2c3.1,0,6.1-0.6,9-1.8c2.8-1.2,5.3-2.9,7.4-5c2.2-2.2,3.8-4.6,4.9-7.2c1.1-2.6,1.7-5.4,1.7-8.4
			c0-2.9-0.6-5.7-1.8-8.6c-1.2-2.7-2.8-5.1-4.8-7.1c-2-2-4.4-3.6-7.4-4.9c-2.9-1.2-5.9-1.8-9-1.8H421z"/>
		<path class="st3" d="M519.7,196.2h-31.1L481,210h-19.7l42.9-78.9L547,210h-19.7L519.7,196.2z M511.8,181.8l-7.6-13.8l-7.7,13.8
			H511.8z"/>
		<path class="st3" d="M571.4,174v36h-20.2v-35.9l-24.4-41.9h22.3l12.1,23l12-23h22.1L571.4,174z"/>
	</g>
	<g>
		<path class="st4" d="M399.3,208.1v-77.8h27.8c5.7,0,11,1,16,3c4.9,1.9,9.3,4.7,13.1,8.2c3.7,3.4,6.6,7.6,8.8,12.4
			c2.1,4.8,3.2,9.9,3.2,15.3c0,5.4-1.1,10.5-3.2,15.2c-2.2,4.9-5.1,9-8.8,12.4c-3.8,3.5-8.2,6.2-13.2,8.2c-5,2-10.3,3-16,3H399.3z
			 M419.2,146.9v44.8h6.2c3.1,0,6.1-0.6,9-1.8c2.8-1.2,5.3-2.9,7.4-5c2.2-2.2,3.8-4.6,4.9-7.2c1.1-2.6,1.7-5.4,1.7-8.4
			c0-2.9-0.6-5.7-1.8-8.6c-1.2-2.7-2.8-5.1-4.8-7.1c-2-2-4.4-3.6-7.4-4.9c-2.9-1.2-5.9-1.8-9-1.8H419.2z"/>
		<path class="st4" d="M517.9,194.3h-31.1l-7.6,13.8h-19.7l42.9-78.9l42.8,78.9h-19.7L517.9,194.3z M510,180l-7.6-13.8l-7.7,13.8
			H510z"/>
		<path class="st4" d="M569.6,172.1v36h-20.2v-35.9l-24.4-41.9h22.3l12.1,23l12-23h22.1L569.6,172.1z"/>
	</g>
	<g>
		<g>
			<path d="M562.2,262.1c0.5-0.8,1.1-1.4,1.9-1.8c0.8-0.4,1.6-0.7,2.5-0.7s1.7,0.2,2.5,0.7c0.8,0.5,1.4,1.1,1.8,1.8
				c0.5,0.7,0.7,1.6,0.7,2.5c0,1.5-0.5,2.7-1.4,3.7c-1,1-2.2,1.5-3.6,1.5c-0.9,0-1.8-0.2-2.5-0.7c-0.8-0.4-1.4-1.1-1.8-1.9
				c-0.4-0.8-0.7-1.7-0.7-2.6C561.5,263.6,561.7,262.8,562.2,262.1z"/>
			<path d="M573,271.5c1.5,0,2.7-0.1,3.6-0.3c0.9-0.2,1.5-0.7,2-1.4c0.4-0.7,0.7-1.8,0.7-3.2v-26.2h8.9v27c0,2.1-0.2,3.9-0.6,5.4
				c-0.4,1.5-1.1,2.8-2,3.7c-0.9,1-2.2,1.8-3.8,2.2c-1.6,0.5-3.6,0.8-6,0.8L573,271.5z M587.6,234.7c-0.4,0.7-1,1.2-1.7,1.7
				c-0.7,0.4-1.5,0.6-2.3,0.6s-1.6-0.2-2.3-0.6c-0.7-0.4-1.3-1-1.7-1.7c-0.4-0.7-0.6-1.5-0.6-2.4c0-0.9,0.2-1.6,0.6-2.3
				c0.4-0.7,1-1.3,1.7-1.7c0.7-0.4,1.5-0.6,2.3-0.6s1.6,0.2,2.3,0.6c0.7,0.4,1.2,1,1.7,1.7c0.4,0.7,0.6,1.5,0.6,2.3
				C588.3,233.2,588.1,234,587.6,234.7z"/>
			<path d="M594.2,260c1.8,1.8,3.9,2.6,6.5,2.6c2.7,0,4-0.8,4-2.3c0-0.8-0.7-1.4-2.2-1.8c-1-0.2-2.7-0.7-5-1.3
				c-1.8-0.5-3.4-1.4-4.7-2.7c-1.2-1.3-1.9-3.3-1.9-5.9c0-2,0.5-3.8,1.5-5.2c1-1.4,2.4-2.5,4-3.1c1.7-0.7,3.5-1,5.5-1
				c1.1,0,2.3,0.2,3.5,0.5c1.3,0.4,2.4,0.9,3.4,1.4c1.1,0.6,2.1,1.3,2.9,2.1l-4.9,4.9c-1.4-1.1-3-1.6-4.7-1.6c-2,0-3,0.6-3,1.7
				c0,1,0.8,1.7,2.3,2.1c1.7,0.4,3.3,0.9,5,1.3c1.8,0.5,3.4,1.3,4.6,2.6c1.2,1.3,1.9,3.3,1.9,6c0,2-0.5,3.8-1.6,5.2
				c-1.1,1.5-2.5,2.6-4.3,3.3c-1.8,0.8-3.7,1.1-5.6,1.1c-1.6,0-3.1-0.1-4.4-0.4c-1.3-0.2-2.5-0.6-3.7-1.2c-1.2-0.6-2.4-1.3-3.7-2.3
				L594.2,260z"/>
		</g>
	</g>
</g>
<g>
	<polygon class="st3" points="188.9,502 204.2,502 196.5,488.2 	"/>
	<path class="st3" d="M136,475.6c-2-2-4.4-3.6-7.4-4.9c-2.9-1.2-5.9-1.8-9-1.8h-6.2v44.8h6.2c3.1,0,6.1-0.6,9-1.8
		c2.8-1.2,5.3-2.9,7.4-5c2.2-2.2,3.8-4.6,4.9-7.2c1.1-2.6,1.7-5.4,1.7-8.4c0-2.9-0.6-5.7-1.8-8.6C139.6,480,138,477.6,136,475.6z"/>
	<path class="st3" d="M286.3,381.2h-27.2h-6.9c-3.1,0-5.6,2.5-5.6,5.6c0,6.9,0,17.8,0,17.8c0,6.5-5.3,11.9-11.9,11.9h-10.4
		c-6.5,0-11.9-5.3-11.9-11.9c0,0,0-10.7,0-17.6c0-3.2-2.6-5.8-5.8-5.8H180c-3.1,0-5.6,2.5-5.6,5.6c0,6.9,0,17.8,0,17.8
		c0,6.5-5.3,11.9-11.9,11.9h-10.4c-6.5,0-11.9-5.3-11.9-11.9c0,0,0-10.8,0-17.7c0-3.1-2.5-5.7-5.7-5.7h-3h-24
		c-18.4,0-34,15.5-36.9,36.6L54.5,537.7c-3.6,26.3,13.9,50.2,36.9,50.2h91.8h72.6c-0.1-0.4-0.2-0.8-0.2-1.3c0-0.9,0.2-1.7,0.7-2.5
		c0.5-0.8,1.1-1.4,1.9-1.8c0.8-0.4,1.6-0.7,2.5-0.7c0.9,0,1.7,0.2,2.5,0.7c0.8,0.5,1.4,1.1,1.8,1.8c0.5,0.7,0.7,1.6,0.7,2.5
		c0,0.5-0.1,0.9-0.2,1.3h4.4c1.1,0,2.3-0.1,3.4-0.2v-25.2h8.9v23.2c1.8-0.7,3.5-1.5,5.2-2.4l0.9-1.2c0.1,0.1,0.3,0.3,0.4,0.4
		c1.4-0.9,2.7-1.8,3.9-2.9c-0.3-0.1-0.7-0.2-1.1-0.3c-1.8-0.5-3.4-1.4-4.7-2.7c-1.2-1.3-1.9-3.3-1.9-5.9c0-2,0.5-3.8,1.5-5.2
		c1-1.4,2.4-2.5,4-3.1c1.7-0.7,3.5-1,5.5-1c1.1,0,2.3,0.2,3.5,0.5c1.3,0.4,2.4,0.9,3.4,1.4c0.1,0.1,0.3,0.2,0.4,0.3
		c0.6-1.9,1.1-3.8,1.4-5.8l18.3-126.3C326.8,405,309.3,381.2,286.3,381.2z M150.4,518.9c-3.8,3.5-8.2,6.3-13.2,8.2c-5,2-10.3,3-16,3
		H93.5v-77.8h27.8c5.7,0,11,1,16,3c4.9,1.9,9.3,4.7,13.1,8.2c3.7,3.4,6.6,7.6,8.8,12.4c2.1,4.8,3.2,9.9,3.2,15.3s-1.1,10.5-3.2,15.2
		C157.1,511.4,154.1,515.5,150.4,518.9z M219.7,530.2l-7.6-13.8H181l-7.6,13.8h-19.7l42.9-78.9l42.8,78.9H219.7z M281.8,556.7
		c-0.4,0.7-1,1.2-1.7,1.7c-0.7,0.4-1.5,0.6-2.3,0.6c-0.9,0-1.6-0.2-2.3-0.6c-0.7-0.4-1.3-1-1.7-1.7c-0.4-0.7-0.6-1.5-0.6-2.4
		c0-0.9,0.2-1.6,0.6-2.3c0.4-0.7,1-1.3,1.7-1.7c0.7-0.4,1.5-0.6,2.3-0.6c0.9,0,1.6,0.2,2.3,0.6c0.7,0.4,1.2,1,1.7,1.7
		c0.4,0.7,0.6,1.5,0.6,2.3C282.5,555.3,282.3,556.1,281.8,556.7z M263.8,494.2v36h-20.2v-35.9l-24.4-41.9h22.3l12.1,23l12-23h22.1
		L263.8,494.2z"/>
	<path class="st3" d="M293.4,570.3c0,1,0.8,1.7,2.3,2.1c1,0.3,2,0.5,3,0.7c0.7-1,1.4-2.1,2.1-3.2c-1.3-0.9-2.7-1.4-4.3-1.4
		C294.4,568.6,293.4,569.1,293.4,570.3z"/>
</g>
<g>
	<polygon class="st3" points="188.9,502 204.2,502 196.5,488.2 	"/>
	<path class="st3" d="M136,475.6c-2-2-4.4-3.6-7.4-4.9c-2.9-1.2-5.9-1.8-9-1.8h-6.2v44.8h6.2c3.1,0,6.1-0.6,9-1.8
		c2.8-1.2,5.3-2.9,7.4-5c2.2-2.2,3.8-4.6,4.9-7.2c1.1-2.6,1.7-5.4,1.7-8.4c0-2.9-0.6-5.7-1.8-8.6C139.6,480,138,477.6,136,475.6z"/>
	<path class="st3" d="M286.3,381.2h-27.2h-6.9c-3.1,0-5.6,2.5-5.6,5.6c0,6.9,0,17.8,0,17.8c0,6.5-5.3,11.9-11.9,11.9h-10.4
		c-6.5,0-11.9-5.3-11.9-11.9c0,0,0-10.7,0-17.6c0-3.2-2.6-5.8-5.8-5.8H180c-3.1,0-5.6,2.5-5.6,5.6c0,6.9,0,17.8,0,17.8
		c0,6.5-5.3,11.9-11.9,11.9h-10.4c-6.5,0-11.9-5.3-11.9-11.9c0,0,0-10.8,0-17.7c0-3.1-2.5-5.7-5.7-5.7h-3h-24
		c-18.4,0-34,15.5-36.9,36.6L54.5,537.7c-3.6,26.3,13.9,50.2,36.9,50.2h91.8h72.6c-0.1-0.4-0.2-0.8-0.2-1.3c0-0.9,0.2-1.7,0.7-2.5
		c0.5-0.8,1.1-1.4,1.9-1.8c0.8-0.4,1.6-0.7,2.5-0.7c0.9,0,1.7,0.2,2.5,0.7c0.8,0.5,1.4,1.1,1.8,1.8c0.5,0.7,0.7,1.6,0.7,2.5
		c0,0.5-0.1,0.9-0.2,1.3h4.4c1.1,0,2.3-0.1,3.4-0.2v-25.2h8.9v23.2c1.8-0.7,3.5-1.5,5.2-2.4l0.9-1.2c0.1,0.1,0.3,0.3,0.4,0.4
		c1.4-0.9,2.7-1.8,3.9-2.9c-0.3-0.1-0.7-0.2-1.1-0.3c-1.8-0.5-3.4-1.4-4.7-2.7c-1.2-1.3-1.9-3.3-1.9-5.9c0-2,0.5-3.8,1.5-5.2
		c1-1.4,2.4-2.5,4-3.1c1.7-0.7,3.5-1,5.5-1c1.1,0,2.3,0.2,3.5,0.5c1.3,0.4,2.4,0.9,3.4,1.4c0.1,0.1,0.3,0.2,0.4,0.3
		c0.6-1.9,1.1-3.8,1.4-5.8l18.3-126.3C326.8,405,309.3,381.2,286.3,381.2z M150.4,518.9c-3.8,3.5-8.2,6.3-13.2,8.2c-5,2-10.3,3-16,3
		H93.5v-77.8h27.8c5.7,0,11,1,16,3c4.9,1.9,9.3,4.7,13.1,8.2c3.7,3.4,6.6,7.6,8.8,12.4c2.1,4.8,3.2,9.9,3.2,15.3s-1.1,10.5-3.2,15.2
		C157.1,511.4,154.1,515.5,150.4,518.9z M219.7,530.2l-7.6-13.8H181l-7.6,13.8h-19.7l42.9-78.9l42.8,78.9H219.7z M281.8,556.7
		c-0.4,0.7-1,1.2-1.7,1.7c-0.7,0.4-1.5,0.6-2.3,0.6c-0.9,0-1.6-0.2-2.3-0.6c-0.7-0.4-1.3-1-1.7-1.7c-0.4-0.7-0.6-1.5-0.6-2.4
		c0-0.9,0.2-1.6,0.6-2.3c0.4-0.7,1-1.3,1.7-1.7c0.7-0.4,1.5-0.6,2.3-0.6c0.9,0,1.6,0.2,2.3,0.6c0.7,0.4,1.2,1,1.7,1.7
		c0.4,0.7,0.6,1.5,0.6,2.3C282.5,555.3,282.3,556.1,281.8,556.7z M263.8,494.2v36h-20.2v-35.9l-24.4-41.9h22.3l12.1,23l12-23h22.1
		L263.8,494.2z"/>
	<path class="st3" d="M293.4,570.3c0,1,0.8,1.7,2.3,2.1c1,0.3,2,0.5,3,0.7c0.7-1,1.4-2.1,2.1-3.2c-1.3-0.9-2.7-1.4-4.3-1.4
		C294.4,568.6,293.4,569.1,293.4,570.3z"/>
</g>
<g>
	<polygon class="st5" points="696.3,502 711.6,502 704,488.2 	"/>
	<path class="st5" d="M643.5,475.6c-2-2-4.4-3.6-7.4-4.9c-2.9-1.2-5.9-1.8-9-1.8h-6.2v44.8h6.2c3.1,0,6.1-0.6,9-1.8
		c2.8-1.2,5.3-2.9,7.4-5c2.2-2.2,3.8-4.6,4.9-7.2c1.1-2.6,1.7-5.4,1.7-8.4c0-2.9-0.6-5.7-1.8-8.6C647.1,480,645.5,477.6,643.5,475.6
		z"/>
	<path class="st5" d="M793.8,381.2h-27.2h-6.9c-3.1,0-5.6,2.5-5.6,5.6c0,6.9,0,17.8,0,17.8c0,6.5-5.3,11.9-11.9,11.9h-10.4
		c-6.5,0-11.9-5.3-11.9-11.9c0,0,0-10.7,0-17.6c0-3.2-2.6-5.8-5.8-5.8h-26.8c-3.1,0-5.6,2.5-5.6,5.6c0,6.9,0,17.8,0,17.8
		c0,6.5-5.3,11.9-11.9,11.9h-10.4c-6.5,0-11.9-5.3-11.9-11.9c0,0,0-10.8,0-17.7c0-3.1-2.5-5.7-5.7-5.7h-3h-24
		c-18.4,0-34,15.5-36.9,36.6L562,537.7c-3.6,26.3,13.9,50.2,36.9,50.2h91.8h72.6c-0.1-0.4-0.2-0.8-0.2-1.3c0-0.9,0.2-1.7,0.7-2.5
		c0.5-0.8,1.1-1.4,1.9-1.8c0.8-0.4,1.6-0.7,2.5-0.7c0.9,0,1.7,0.2,2.5,0.7c0.8,0.5,1.4,1.1,1.8,1.8c0.5,0.7,0.7,1.6,0.7,2.5
		c0,0.5-0.1,0.9-0.2,1.3h4.4c1.1,0,2.3-0.1,3.4-0.2v-25.2h8.9v23.2c1.8-0.7,3.5-1.5,5.2-2.4l0.9-1.2c0.1,0.1,0.3,0.3,0.4,0.4
		c1.4-0.9,2.7-1.8,3.9-2.9c-0.3-0.1-0.7-0.2-1.1-0.3c-1.8-0.5-3.4-1.4-4.7-2.7c-1.2-1.3-1.9-3.3-1.9-5.9c0-2,0.5-3.8,1.5-5.2
		c1-1.4,2.4-2.5,4-3.1c1.7-0.7,3.5-1,5.5-1c1.1,0,2.3,0.2,3.5,0.5c1.3,0.4,2.4,0.9,3.4,1.4c0.1,0.1,0.3,0.2,0.4,0.3
		c0.6-1.9,1.1-3.8,1.4-5.8l18.3-126.3C834.2,405,816.7,381.2,793.8,381.2z M657.9,518.9c-3.8,3.5-8.2,6.3-13.2,8.2c-5,2-10.3,3-16,3
		H601v-77.8h27.8c5.7,0,11,1,16,3c4.9,1.9,9.3,4.7,13.1,8.2c3.7,3.4,6.6,7.6,8.8,12.4c2.1,4.8,3.2,9.9,3.2,15.3s-1.1,10.5-3.2,15.2
		C664.5,511.4,661.6,515.5,657.9,518.9z M727.1,530.2l-7.6-13.8h-31.1l-7.6,13.8h-19.7l42.9-78.9l42.8,78.9H727.1z M789.3,556.7
		c-0.4,0.7-1,1.2-1.7,1.7c-0.7,0.4-1.5,0.6-2.3,0.6c-0.9,0-1.6-0.2-2.3-0.6c-0.7-0.4-1.3-1-1.7-1.7c-0.4-0.7-0.6-1.5-0.6-2.4
		c0-0.9,0.2-1.6,0.6-2.3c0.4-0.7,1-1.3,1.7-1.7c0.7-0.4,1.5-0.6,2.3-0.6c0.9,0,1.6,0.2,2.3,0.6c0.7,0.4,1.2,1,1.7,1.7
		c0.4,0.7,0.6,1.5,0.6,2.3C789.9,555.3,789.7,556.1,789.3,556.7z M771.2,494.2v36H751v-35.9l-24.4-41.9h22.3l12.1,23l12-23h22.1
		L771.2,494.2z"/>
	<path class="st5" d="M800.8,570.3c0,1,0.8,1.7,2.3,2.1c1,0.3,2,0.5,3,0.7c0.7-1,1.4-2.1,2.1-3.2c-1.3-0.9-2.7-1.4-4.3-1.4
		C801.8,568.6,800.8,569.1,800.8,570.3z"/>
</g>
</svg>
