<?xml version="1.0" encoding="utf-8"?>
<!-- Generator: Adobe Illustrator 19.2.0, SVG Export Plug-In . SVG Version: 6.00 Build 0)  -->
<svg version="1.1" id="katman_1" xmlns="http://www.w3.org/2000/svg" xmlns:xlink="http://www.w3.org/1999/xlink" x="0px" y="0px"
	 viewBox="0 0 887.3 668" style="enable-background:new 0 0 887.3 668;" xml:space="preserve">
<style type="text/css">
	.st0{fill:url(#SVGID_1_);}
	.st1{fill:#FFFFFF;}
	.st2{fill:#1D1D1B;}
	.st3{fill:#F5F5F5;}
</style>
<g>
	<linearGradient id="SVGID_1_" gradientUnits="userSpaceOnUse" x1="368.8929" y1="300.8551" x2="636.0246" y2="13.551">
		<stop  offset="0" style="stop-color:#039BE5"/>
		<stop  offset="0.1058" style="stop-color:#0AA4E3"/>
		<stop  offset="0.3917" style="stop-color:#1AB7DE"/>
		<stop  offset="0.6862" style="stop-color:#23C2DB"/>
		<stop  offset="1" style="stop-color:#26C6DA"/>
	</linearGradient>
	<path class="st0" d="M572,16H422C382.4,16,350,48.4,350,88.1v25.2l14.3,20.1c5.2,7.4,5.4,17.2,0.5,24.7l0,0c-2,3-2,7,0,10l2.1,3.2
		c3.7,5.6,3.6,13-0.4,18.5L350,212.9v25.2c0,39.6,32.4,72.1,72.1,72.1h150c39.6,0,72.1-32.4,72.1-72.1v-150
		C644.1,48.4,611.6,16,572,16z"/>
	<g>
		<path class="st1" d="M423.9,82.4c22.7,0,35.1,12.4,35.1,35.3v68.9c0,22.9-12.4,35.3-35.1,35.3h-30.3V82.4H423.9z M414.8,202.3h8.4
			c10.2,0,14.7-5.4,14.7-17.1V119c0-11.8-4.6-17.1-14.7-17.1h-8.4V202.3z"/>
		<path class="st1" d="M524.5,221.8l-4.6-31.7h-23.3l-4.6,31.7h-21.1l24.1-139.5h26.9l24.1,139.5H524.5z M499.4,171h17.7l-8.6-58.8
			H508L499.4,171z"/>
		<path class="st1" d="M591.3,221.8h-21.1v-63.2l-29.3-76.3h22.3l17.7,49.4h0.4l16.9-49.4h21.9l-28.9,76.5V221.8z"/>
	</g>
	<g>
		<path class="st1" d="M563.1,273v-5.8h5.8v5.8H563.1z"/>
		<path class="st1" d="M585.3,264.6c0,5.8-2.7,8.9-8.4,8.9c-1.3,0-2.5-0.2-3.7-0.5l0.3-5c0.7,0.2,1.6,0.4,2.7,0.4
			c2.5,0,3.6-1.2,3.6-4v-27.6h5.5V264.6z"/>
		<path class="st1" d="M605.5,244.4v0.9l-5.3,0.5v-1.3c0-2.1-1-3.2-2.8-3.2c-1.8,0-2.8,1.1-2.8,3.2v0.5c0,2.1,0.9,3.9,4.6,7
			c5,4.2,6.9,7.2,6.9,11.6v1.8c0,5.2-3.1,8.1-8.5,8.1s-8.5-2.9-8.5-8.1V263l5.3-0.5v2.6c0,2.3,1,3.4,3.1,3.4s3.1-1.1,3.1-3.4v-1.2
			c0-2.3-1.1-4.1-4.8-7.2c-5-4.2-6.7-7.2-6.7-11.5v-0.8c0-5.2,2.9-8.1,8.2-8.1C602.5,236.3,605.5,239.2,605.5,244.4z"/>
	</g>
</g>
<g>
	<polygon class="st2" points="213.9,430.2 205.3,489 223.1,489 214.5,430.2 	"/>
	<path class="st2" d="M129,419.9h-8.4v100.4h8.4c10.2,0,14.7-5.4,14.7-17.1V437C143.8,425.3,139.2,419.9,129,419.9z"/>
	<path class="st2" d="M277.9,334h-150c-39.6,0-72.1,32.4-72.1,72.1v25.2l14.3,20.1c5.2,7.4,5.4,17.2,0.5,24.7v0c-2,3-2,7,0,10
		l2.1,3.2c3.7,5.6,3.6,13-0.4,18.5l-16.5,23.2V556c0,39.6,32.4,72.1,72.1,72.1h150c39.6,0,72.1-32.4,72.1-72.1v-150
		C350,366.4,317.5,334,277.9,334z M164.9,504.6c0,22.9-12.4,35.3-35.1,35.3H99.5V400.4h30.3c22.7,0,35.1,12.4,35.1,35.3V504.6z
		 M230.5,539.8l-4.6-31.7h-23.3l-4.6,31.7h-21.1L201,400.4h26.9L252,539.8H230.5z M274.8,591h-5.8v-5.8h5.8V591z M291.2,582.6
		c0,5.8-2.7,8.9-8.4,8.9c-1.3,0-2.5-0.2-3.7-0.5l0.3-5c0.7,0.2,1.6,0.4,2.7,0.4c2.5,0,3.6-1.2,3.6-4v-27.6h5.5V582.6z M312,583.4
		c0,5.2-3.1,8.1-8.5,8.1s-8.5-2.9-8.5-8.1v-2.4l5.3-0.5v2.6c0,2.3,1,3.4,3.1,3.4s3.1-1.1,3.1-3.4v-1.2c0-2.3-1.1-4.1-4.8-7.2
		c-5-4.2-6.7-7.2-6.7-11.5v-0.8c0-5.2,2.9-8.1,8.2-8.1c5.2,0,8.2,2.9,8.2,8.1v0.9l-5.3,0.5v-1.3c0-2.1-1-3.2-2.8-3.2
		c-1.8,0-2.8,1.1-2.8,3.2v0.5c0,2.1,0.9,3.9,4.6,7c5,4.2,6.9,7.2,6.9,11.6V583.4z M297.2,476.9v63h-21.1v-63.2l-29.3-76.3h22.3
		l17.7,49.4h0.4l16.9-49.4h21.9L297.2,476.9z"/>
</g>
<g>
	<polygon class="st3" points="721.2,430.2 712.6,489 730.3,489 721.8,430.2 	"/>
	<path class="st3" d="M636.3,419.9h-8.4v100.4h8.4c10.2,0,14.7-5.4,14.7-17.1V437C651,425.3,646.5,419.9,636.3,419.9z"/>
	<path class="st3" d="M785.2,334h-150c-39.6,0-72.1,32.4-72.1,72.1v25.2l14.3,20.1c5.2,7.4,5.4,17.2,0.5,24.7v0c-2,3-2,7,0,10
		l2.1,3.2c3.7,5.6,3.6,13-0.4,18.5l-16.5,23.2V556c0,39.6,32.4,72.1,72.1,72.1h150c39.6,0,72.1-32.4,72.1-72.1v-150
		C857.2,366.4,824.8,334,785.2,334z M672.2,504.6c0,22.9-12.4,35.3-35.1,35.3h-30.3V400.4h30.3c22.7,0,35.1,12.4,35.1,35.3V504.6z
		 M737.7,539.8l-4.6-31.7h-23.3l-4.6,31.7h-21.1l24.1-139.5h26.9l24.1,139.5H737.7z M782.1,591h-5.8v-5.8h5.8V591z M798.5,582.6
		c0,5.8-2.7,8.9-8.4,8.9c-1.3,0-2.5-0.2-3.7-0.5l0.3-5c0.7,0.2,1.6,0.4,2.7,0.4c2.5,0,3.6-1.2,3.6-4v-27.6h5.5V582.6z M819.3,583.4
		c0,5.2-3.1,8.1-8.5,8.1s-8.5-2.9-8.5-8.1v-2.4l5.3-0.5v2.6c0,2.3,1,3.4,3.1,3.4s3.1-1.1,3.1-3.4v-1.2c0-2.3-1.1-4.1-4.8-7.2
		c-5-4.2-6.7-7.2-6.7-11.5v-0.8c0-5.2,2.9-8.1,8.2-8.1c5.2,0,8.2,2.9,8.2,8.1v0.9l-5.3,0.5v-1.3c0-2.1-1-3.2-2.8-3.2
		c-1.8,0-2.8,1.1-2.8,3.2v0.5c0,2.1,0.9,3.9,4.6,7c5,4.2,6.9,7.2,6.9,11.6V583.4z M804.5,476.9v63h-21.1v-63.2l-29.3-76.3h22.3
		l17.7,49.4h0.4l16.9-49.4h21.9L804.5,476.9z"/>
</g>
</svg>
